<svg id="Capa_1" data-name="Capa 1" xmlns="https://www.w3.org/2000/svg" viewBox="0 0 133 98.6"><defs><style>.cls-1,.cls-2,.cls-3{fill:#637381;}.cls-2{opacity:0.5;}.cls-3{opacity:0.3;}.cls-4{opacity:0.7;}</style></defs><rect class="cls-1" width="39.65" height="39.65" rx="4.83"/><rect class="cls-2" x="59.96" y="1.83" width="73.04" height="10.17" rx="5.09"/><rect class="cls-3" x="59.96" y="27.07" width="48.76" height="10.17" rx="5.09"/><g class="cls-4"><path class="cls-1" d="M63.7,98.15V121.8H40.05V98.15H63.7m3.18-8h-30A4.82,4.82,0,0,0,32.05,95v30a4.83,4.83,0,0,0,4.83,4.83h30A4.82,4.82,0,0,0,71.7,125V95a4.82,4.82,0,0,0-4.82-4.82Z" transform="translate(-32.05 -31.2)"/></g><rect class="cls-2" x="59.96" y="60.77" width="73.04" height="10.17" rx="5.09"/><rect class="cls-3" x="59.96" y="86.01" width="48.76" height="10.17" rx="5.09"/></svg>