<svg xmlns="https://www.w3.org/2000/svg" viewBox="0 0 191.1 161"><defs><style>.cls-1,.cls-3,.cls-4{fill:#637381;}.cls-1{opacity:0.2;}.cls-2{fill:#fff;}.cls-3{opacity:0.5;}.cls-4{opacity:0.35;}</style></defs><g id="Capa_2" data-name="Capa 2"><g id="Capa_1-2" data-name="Capa 1"><rect class="cls-1" width="191" height="130" rx="13.38"/><polygon class="cls-2" points="79.1 35 79.1 75.32 112.79 55.16 79.1 35"/><path class="cls-3" d="M.1,101h191a0,0,0,0,1,0,0v16a13,13,0,0,1-13,13H13.1a13,13,0,0,1-13-13V101a0,0,0,0,1,0,0Z"/><polygon class="cls-4" points="61.1 148 73.1 130 120.1 130 132.86 148 61.1 148"/><rect class="cls-3" x="36.1" y="148" width="119" height="13" rx="6.5"/></g></g></svg>