<svg id="Capa_1" data-name="Capa 1" xmlns="https://www.w3.org/2000/svg" viewBox="0 0 191.1 161"><defs><style>.cls-1,.cls-2,.cls-3{fill:#637381;isolation:isolate;}.cls-1{opacity:0.2;}.cls-2{opacity:0.5;}.cls-3{opacity:0.35;}.cls-4{fill:#fff;}</style></defs><g id="Capa_2" data-name="Capa 2"><g id="Capa_1-2" data-name="Capa 1-2"><rect class="cls-1" width="191" height="130" rx="13.38"/><path class="cls-2" d="M.1,101h191v16a13,13,0,0,1-13,13H13.1a13,13,0,0,1-13-13V101Z"/><polygon class="cls-3" points="61.1 148 73.1 130 120.1 130 132.86 148 61.1 148"/><path class="cls-2" d="M42.6,148h106a6.5,6.5,0,0,1,6.5,6.5h0a6.5,6.5,0,0,1-6.5,6.5H42.6a6.5,6.5,0,0,1-6.5-6.5h0A6.5,6.5,0,0,1,42.6,148Z"/></g></g><path class="cls-4" d="M12.31,81.22V70.43a31,31,0,0,1,31-31h0a31,31,0,0,1,31.05,31V81.22C74.4,98.36,12.31,98.36,12.31,81.22Z"/><circle class="cls-4" cx="43.35" cy="26.42" r="14.13"/><rect class="cls-4" x="92.5" y="23.95" width="74.93" height="9.59" rx="4.79"/><rect class="cls-4" x="92.5" y="46.7" width="64.37" height="9.59" rx="4.79"/><rect class="cls-4" x="92.5" y="69.24" width="53.22" height="9.59" rx="4.79"/></svg>